<?xml version="1.0" standalone="no"?>
<!DOCTYPE svg PUBLIC "-//W3C//DTD SVG 20010904//EN"
 "http://www.w3.org/TR/2001/REC-SVG-20010904/DTD/svg10.dtd">
<svg version="1.0" xmlns="http://www.w3.org/2000/svg"
 width="383.000000pt" height="383.000000pt" viewBox="0 0 383.000000 383.000000"
 preserveAspectRatio="xMidYMid meet">
<metadata>
Created by potrace 1.14, written by Peter Selinger 2001-2017
</metadata>
<g transform="translate(0.000000,383.000000) scale(0.100000,-0.100000)"
fill="#000000" stroke="none">
<path d="M1805 3806 c-36 -17 -100 -75 -235 -210 l-185 -186 218 -218 218
-218 83 4 c99 5 149 -13 219 -77 67 -62 90 -125 85 -227 l-4 -83 210 -210 211
-210 45 10 c89 20 197 -17 264 -92 131 -146 87 -368 -90 -455 -139 -68 -314
-8 -383 131 -28 56 -39 158 -22 206 l12 33 -201 201 -200 200 0 -521 0 -520
45 -32 c77 -54 115 -134 115 -242 0 -166 -138 -290 -309 -278 -109 8 -194 67
-243 167 -33 68 -31 178 4 247 28 53 91 117 127 129 l21 6 0 534 0 534 -21 6
c-36 12 -99 76 -126 129 -28 54 -35 134 -20 211 l8 40 -216 215 -215 215 -586
-585 c-464 -463 -591 -595 -610 -635 -30 -63 -32 -142 -3 -205 15 -35 214
-239 882 -908 511 -512 878 -872 901 -884 56 -29 132 -34 197 -13 51 16 95 58
925 889 831 830 873 874 889 925 21 65 16 141 -13 197 -12 23 -372 390 -884
901 -669 668 -873 867 -908 882 -63 29 -142 27 -205 -3z"/>
</g>
</svg>
